HIERARCHY
ROOT hip
{
  OFFSET 0 0 0
  CHANNELS 6 Xposition Yposition Zposition Zrotation Yrotation Xrotation
  JOINT abdomen
  {
    OFFSET 0 20.6881 -0.73152
    CHANNELS 3 Zrotation Xrotation Yrotation
    JOINT chest
    {
      OFFSET 0 11.7043 -0.48768
      CHANNELS 3 Zrotation Xrotation Yrotation
      JOINT neck
      {
        OFFSET 0 22.1894 -2.19456
        CHANNELS 3 Zrotation Xrotation Yrotation
        JOINT head
        {
          OFFSET -0.24384 7.07133 1.2192
          CHANNELS 3 Zrotation Xrotation Yrotation
          JOINT leftEye
          {
            OFFSET 4.14528 8.04674 8.04672
            CHANNELS 3 Zrotation Xrotation Yrotation
            End Site
            {
              OFFSET 1 0 0
            }
          }
          JOINT rightEye
          {
            OFFSET -3.6576 8.04674 8.04672
            CHANNELS 3 Zrotation Xrotation Yrotation
            End Site
            {
              OFFSET 1 0 0
            }
          }
        }
      }
      JOINT rCollar
      {
        OFFSET -2.68224 19.2634 -4.8768
        CHANNELS 3 Zrotation Xrotation Yrotation
        JOINT rShldr
        {
          OFFSET -8.77824 -1.95073 1.46304
          CHANNELS 3 Zrotation Xrotation Yrotation
          JOINT rForeArm
          {
            OFFSET -28.1742 -1.7115 0.48768
            CHANNELS 3 Zrotation Xrotation Yrotation
            JOINT rHand
            {
              OFFSET -22.5879 0.773209 7.07136
              CHANNELS 3 Zrotation Xrotation Yrotation
              JOINT rThumb1
              {
                OFFSET -1.2192 -0.487915 3.41376
                CHANNELS 3 Zrotation Xrotation Yrotation
                JOINT rThumb2
                {
                  OFFSET -3.37035 -0.52449 3.41376
                  CHANNELS 3 Zrotation Xrotation Yrotation
                  End Site
                  {
                    OFFSET -1.78271 -1.18214 1.43049
                  }
                }
              }
              JOINT rIndex1
              {
                OFFSET -7.75947 0.938293 5.60832
                CHANNELS 3 Zrotation Xrotation Yrotation
                JOINT rIndex2
                {
                  OFFSET -2.54057 -0.884171 1.56538
                  CHANNELS 3 Zrotation Xrotation Yrotation
                  End Site
                  {
                    OFFSET -1.62519 -0.234802 1.16502
                  }
                }
              }
              JOINT rMid1
              {
                OFFSET -8.24714 1.18213 3.41376
                CHANNELS 3 Zrotation Xrotation Yrotation
                JOINT rMid2
                {
                  OFFSET -3.10165 -0.590103 1.0647
                  CHANNELS 3 Zrotation Xrotation Yrotation
                  End Site
                  {
                    OFFSET -2.48547 -0.328903 0.83742
                  }
                }
              }
              JOINT rRing1
              {
                OFFSET -8.82822 0.546677 1.51678
                CHANNELS 3 Zrotation Xrotation Yrotation
                JOINT rRing2
                {
                  OFFSET -2.60934 -0.819778 -0.0198488
                  CHANNELS 3 Zrotation Xrotation Yrotation
                  End Site
                  {
                    OFFSET -2.33842 -0.294052 0.168128
                  }
                }
              }
              JOINT rPinky1
              {
                OFFSET -8.27202 -0.0477905 -0.4584
                CHANNELS 3 Zrotation Xrotation Yrotation
                JOINT rPinky2
                {
                  OFFSET -1.82734 -0.647385 -0.700984
                  CHANNELS 3 Zrotation Xrotation Yrotation
                  End Site
                  {
                    OFFSET -1.69225 -0.51767 -0.607171
                  }
                }
              }
            }
          }
        }
      }
      JOINT lCollar
      {
        OFFSET 2.68224 19.2634 -4.8768
        CHANNELS 3 Zrotation Xrotation Yrotation
        JOINT lShldr
        {
          OFFSET 8.77824 -1.95073 1.46304
          CHANNELS 3 Zrotation Xrotation Yrotation
          JOINT lForeArm
          {
            OFFSET 28.1742 -1.7115 0.48768
            CHANNELS 3 Zrotation Xrotation Yrotation
            JOINT lHand
            {
              OFFSET 22.5879 0.773209 7.07136
              CHANNELS 3 Zrotation Xrotation Yrotation
              JOINT lThumb1
              {
                OFFSET 1.2192 -0.487915 3.41376
                CHANNELS 3 Zrotation Xrotation Yrotation
                JOINT lThumb2
                {
                  OFFSET 3.37035 -0.52449 3.41376
                  CHANNELS 3 Zrotation Xrotation Yrotation
                  End Site
                  {
                    OFFSET 1.78271 -1.18214 1.43049
                  }
                }
              }
              JOINT lIndex1
              {
                OFFSET 7.75947 0.938293 5.60832
                CHANNELS 3 Zrotation Xrotation Yrotation
                JOINT lIndex2
                {
                  OFFSET 2.54057 -0.884171 1.56538
                  CHANNELS 3 Zrotation Xrotation Yrotation
                  End Site
                  {
                    OFFSET 1.62519 -0.234802 1.16502
                  }
                }
              }
              JOINT lMid1
              {
                OFFSET 8.24714 1.18213 3.41376
                CHANNELS 3 Zrotation Xrotation Yrotation
                JOINT lMid2
                {
                  OFFSET 3.10165 -0.590103 1.0647
                  CHANNELS 3 Zrotation Xrotation Yrotation
                  End Site
                  {
                    OFFSET 2.48547 -0.328903 0.83742
                  }
                }
              }
              JOINT lRing1
              {
                OFFSET 8.82822 0.546677 1.51678
                CHANNELS 3 Zrotation Xrotation Yrotation
                JOINT lRing2
                {
                  OFFSET 2.60934 -0.819778 -0.0198488
                  CHANNELS 3 Zrotation Xrotation Yrotation
                  End Site
                  {
                    OFFSET 2.33842 -0.294052 0.168128
                  }
                }
              }
              JOINT lPinky1
              {
                OFFSET 8.27202 -0.0477905 -0.4584
                CHANNELS 3 Zrotation Xrotation Yrotation
                JOINT lPinky2
                {
                  OFFSET 1.82734 -0.647385 -0.700984
                  CHANNELS 3 Zrotation Xrotation Yrotation
                  End Site
                  {
                    OFFSET 1.69225 -0.51767 -0.607171
                  }
                }
              }
            }
          }
        }
      }
    }
  }
  JOINT rButtock
  {
    OFFSET -8.77824 4.35084 1.2192
    CHANNELS 3 Zrotation Xrotation Yrotation
    JOINT rThigh
    {
      OFFSET 0 -1.70687 -2.19456
      CHANNELS 3 Zrotation Xrotation Yrotation
      JOINT rShin
      {
        OFFSET 0 -36.8199 0.73152
        CHANNELS 3 Zrotation Xrotation Yrotation
        JOINT rFoot
        {
          OFFSET 0.73152 -45.1104 -5.12064
          CHANNELS 3 Zrotation Xrotation Yrotation
          End Site
          {
            OFFSET -1.1221 -3.69964 12.103
          }
        }
      }
    }
  }
  JOINT lButtock
  {
    OFFSET 8.77824 4.35084 1.2192
    CHANNELS 3 Zrotation Xrotation Yrotation
    JOINT lThigh
    {
      OFFSET 0 -1.70687 -2.19456
      CHANNELS 3 Zrotation Xrotation Yrotation
      JOINT lShin
      {
        OFFSET 0 -36.8199 0.73152
        CHANNELS 3 Zrotation Xrotation Yrotation
        JOINT lFoot
        {
          OFFSET -0.73152 -45.1104 -5.12064
          CHANNELS 3 Zrotation Xrotation Yrotation
          End Site
          {
            OFFSET 1.1221 -3.69964 12.103
          }
        }
      }
    }
  }
}
MOTION
Frames:	8
Frame Time:	0.00833333
56.8026 85.5269 -56.2786 0.0 0.0 0.0 2.34098 -0.00222378 0.0637206 0.646589 0.0059505 0.111937 7.44395e-14 1.59028e-15 5.2181e-16 2.24504e-13 1.59028e-14 1.7813e-15 -0.0 0.0 0.0 -0.0 0.0 0.0 3.74205e-14 -1.02304e-16 3.47873e-16 7.86637e-13 -2.25496e-15 9.34288e-15 1.35584e-11 -4.12737e-12 -3.18055e-14 1.54939e-10 3.63411e-12 1.46624e-12 3.6551e-10 -1.07522e-12 3.0915e-12 6.31202e-10 -1.85426e-12 5.32345e-12 3.65517e-10 -1.07463e-12 3.06924e-12 7.73091 5.47488 0.417314 3.65509e-10 -1.07612e-12 3.0915e-12 2.90554 0.965183 0.102902 3.65515e-10 -1.07543e-12 3.08673e-12 10.2786 0.731801 0.0259123 3.65505e-10 -1.07185e-12 3.10104e-12 2.22167 -0.733487 -0.20892 3.71262e-14 -1.0444e-16 1.49089e-16 7.85028e-13 -2.14936e-15 7.7526e-15 1.35214e-11 3.98305e-12 2.22639e-14 1.54978e-10 -4.47631e-12 1.41535e-12 3.65521e-10 -1.07532e-12 3.08514e-12 6.31256e-10 -1.85744e-12 5.31868e-12 3.65517e-10 -1.07463e-12 3.09468e-12 -7.73091 5.47488 -0.417314 3.65523e-10 -1.07562e-12 3.08832e-12 -2.90554 0.965183 -0.102902 3.65522e-10 -1.07612e-12 3.08514e-12 -10.2786 0.731801 -0.0259123 3.65529e-10 -1.07105e-12 3.0756e-12 -2.22167 -0.733487 0.20892 -2.03217e-16 0.0 -3.88251e-19 2.21593 -8.02968 -0.23139 0.00606887 8.97359 0.152045 -0.478153 -0.951414 0.0349137 2.03217e-16 0.0 3.88251e-19 1.3525 -1.92788 -0.0053653 0.00846335 -2.07867 0.0694315 0.423401 3.99898 -0.127222
56.5615 83.9786 -57.2574 -0.4962 1.1158 6.507 2.66195 2.02593 0.428321 0.573783 -2.28143 0.228864 -1.51807 2.75477 -0.965834 2.27241 -7.05631 -1.26593 -0.0 0.0 0.0 -0.0 0.0 0.0 4.30644e-14 9.81386e-14 -1.09603e-14 20.6289 11.6426 -2.91291 -5.21453 -2.6081 7.86866 0.106001 7.23298 0.987517 8.983e-10 -3.18055e-10 -4.40328e-11 1.55109e-09 -5.37652e-10 -9.10725e-11 8.98308e-10 -3.18056e-10 -4.40525e-11 7.73091 5.47488 0.417314 8.98299e-10 -3.18058e-10 -4.40365e-11 2.90554 0.965183 0.102902 8.98305e-10 -3.18057e-10 -4.40381e-11 10.2786 0.731801 0.0259123 8.98295e-10 -3.18054e-10 -4.40262e-11 2.22167 -0.733487 -0.20892 4.28134e-14 9.81352e-14 -1.12306e-14 -20.7075 6.59645 3.56366 5.09423 -2.52027 -7.72088 -0.0169641 2.89266 -0.404673 -1.55544e-11 2.62856e-10 4.36403e-10 -2.2982e-11 4.56759e-10 7.58095e-10 -1.55584e-11 2.62856e-10 4.36412e-10 -7.73091 5.47488 -0.417314 -1.55531e-11 2.62856e-10 4.36405e-10 -2.90554 0.965183 -0.102902 -1.5556e-11 2.62856e-10 4.36403e-10 -10.2786 0.731801 -0.0259123 -1.5548e-11 2.6286e-10 4.36394e-10 -2.22167 -0.733487 0.20892 -2.03217e-16 0.0 -3.88251e-19 4.16743 -10.9629 3.00497 0.0390786 13.9477 0.253167 -1.33993 -4.08521 -7.21638 2.03217e-16 0.0 3.88251e-19 0.700344 -6.77579 -2.78039 -0.0171363 5.81419 -0.101388 0.795439 -1.3134 3.49501
56.5764 83.8925 -57.3034 -0.4196 1.0659 6.6946 2.96705 4.15837 0.816202 0.509811 -4.69563 0.353685 -3.0176 5.66774 -1.99459 4.31388 -14.4919 -2.67439 -0.0 0.0 0.0 -0.0 0.0 0.0 5.01234e-14 2.0063e-13 -2.32889e-14 43.8347 23.848 -6.40766 -9.95524 -5.20085 16.238 -0.0616088 14.8784 2.08607 1.44777e-09 -6.3626e-10 -1.09322e-10 2.49941e-09 -1.07495e-09 -2.19405e-10 1.44778e-09 -6.36262e-10 -1.09339e-10 7.73091 5.47488 0.417314 1.44778e-09 -6.36265e-10 -1.0933e-10 2.90554 0.965183 0.102902 1.44778e-09 -6.36264e-10 -1.09328e-10 10.2786 0.731801 0.0259123 1.44777e-09 -6.36261e-10 -1.09319e-10 2.22167 -0.733487 -0.20892 4.99183e-14 2.00625e-13 -2.36367e-14 -43.5183 13.507 7.47719 9.75245 -5.03557 -15.9371 0.0097246 5.93518 -0.83382 -4.16233e-10 5.3543e-10 8.8561e-10 -7.10912e-10 9.30432e-10 1.53852e-09 -4.16237e-10 5.35429e-10 8.85618e-10 -7.73091 5.47488 -0.417314 -4.16232e-10 5.3543e-10 8.85611e-10 -2.90554 0.965183 -0.102902 -4.16237e-10 5.3543e-10 8.8561e-10 -10.2786 0.731801 -0.0259123 -4.16228e-10 5.35433e-10 8.85602e-10 -2.22167 -0.733487 0.20892 -2.03217e-16 0.0 -3.88251e-19 6.59465 -13.9828 6.51497 0.0538478 19.185 0.366527 -3.10784 -7.20723 -14.9715 2.03217e-16 0.0 3.88251e-19 -0.517085 -11.8311 -5.80896 0.00820086 14.133 -0.289418 1.92273 -6.86956 7.38716
56.5789 83.8008 -57.3531 -0.3953 1.0322 6.8941 3.22607 6.08115 1.16327 0.456385 -6.85602 0.465502 -4.27323 8.25485 -2.92448 5.82528 -21.1261 -4.04102 -0.0 0.0 0.0 -0.0 0.0 0.0 5.43521e-14 2.94621e-13 -3.35767e-14 66.0646 34.5267 -10.4072 -13.5478 -7.23527 23.7823 -0.477974 21.6721 3.16275 1.96388e-09 -9.52015e-10 -1.38281e-10 3.39086e-09 -1.60925e-09 -2.83864e-10 1.96389e-09 -9.52018e-10 -1.38296e-10 7.73091 5.47488 0.417314 1.96388e-09 -9.52022e-10 -1.38292e-10 2.90554 0.965183 0.102902 1.96389e-09 -9.52021e-10 -1.38288e-10 10.2786 0.731801 0.0259123 1.96387e-09 -9.52017e-10 -1.38281e-10 2.22167 -0.733487 -0.20892 5.41879e-14 2.94614e-13 -3.39898e-14 -64.6947 19.4739 11.2727 13.294 -7.01283 -23.3248 0.0728888 8.67623 -1.22651 -7.77706e-10 7.90719e-10 1.30304e-09 -1.33146e-09 1.37399e-09 2.26365e-09 -7.7771e-10 7.90718e-10 1.30305e-09 -7.73091 5.47488 -0.417314 -7.77705e-10 7.90719e-10 1.30304e-09 -2.90554 0.965183 -0.102902 -7.77712e-10 7.9072e-10 1.30304e-09 -10.2786 0.731801 -0.0259123 -7.77702e-10 7.90722e-10 1.30303e-09 -2.22167 -0.733487 0.20892 -2.03217e-16 0.0 -3.88251e-19 9.09861 -16.6445 9.71944 0.0472351 23.8955 0.477685 -5.40705 -9.70476 -21.9945 2.03217e-16 0.0 3.88251e-19 -2.05906 -16.3189 -8.62199 0.080637 21.5993 -0.474705 3.57355 -11.7334 10.968
56.5676 83.6993 -57.407 -0.4505 1.0581 7.0304 3.42456 7.48074 1.40299 0.40926 -8.38203 0.542289 -5.11897 10.0364 -3.58137 6.73343 -25.7979 -5.07267 -0.0 0.0 0.0 -0.0 0.0 0.0 5.15052e-14 3.67357e-13 -3.8763e-14 82.7579 41.754 -14.1331 -15.7257 -8.4348 29.0956 -0.935713 26.3621 3.99384 2.39655e-09 -1.26165e-09 -7.6416e-11 4.14009e-09 -2.13605e-09 -1.88643e-10 2.39657e-09 -1.26165e-09 -7.64287e-11 7.73091 5.47488 0.417314 2.39656e-09 -1.26165e-09 -7.64287e-11 2.90554 0.965183 0.102902 2.39656e-09 -1.26165e-09 -7.64224e-11 10.2786 0.731801 0.0259123 2.39655e-09 -1.26165e-09 -7.6416e-11 2.22167 -0.733487 -0.20892 5.13693e-14 3.67351e-13 -3.92103e-14 -79.927 23.3788 14.2136 15.4334 -8.17119 -28.4853 0.14157 10.6651 -1.51662 -1.04116e-09 1.0028e-09 1.64102e-09 -1.78354e-09 1.74226e-09 2.85052e-09 -1.04117e-09 1.0028e-09 1.64103e-09 -7.73091 5.47488 -0.417314 -1.04116e-09 1.0028e-09 1.64102e-09 -2.90554 0.965183 -0.102902 -1.04117e-09 1.0028e-09 1.64102e-09 -10.2786 0.731801 -0.0259123 -1.04116e-09 1.0028e-09 1.64101e-09 -2.22167 -0.733487 0.20892 -2.03217e-16 0.0 -3.88251e-19 11.0709 -18.5693 11.9683 0.0284956 27.2893 0.565505 -7.40334 -11.2473 -26.9361 2.03217e-16 0.0 3.88251e-19 -3.37488 -19.5308 -10.6346 0.164482 26.935 -0.621852 5.08537 -15.0762 13.5183
56.5261 83.6112 -57.4581 -0.513 1.1388 7.1705 3.57969 8.15643 1.48311 0.357639 -9.01492 0.566893 -5.48654 10.678 -3.8395 7.17342 -27.7325 -5.45749 -0.0 0.0 0.0 -0.0 0.0 0.0 3.70251e-14 4.23384e-13 -3.72915e-14 89.6504 44.4824 -16.02 -16.5175 -8.85198 31.2022 -1.15046 28.1206 4.33069 2.8295e-09 -1.64319e-09 1.52972e-10 4.89348e-09 -2.78991e-09 1.97191e-10 2.82951e-09 -1.6432e-09 1.52961e-10 7.73091 5.47488 0.417314 2.8295e-09 -1.6432e-09 1.5296e-10 2.90554 0.965183 0.102902 2.82951e-09 -1.6432e-09 1.52967e-10 10.2786 0.731801 0.0259123 2.8295e-09 -1.64319e-09 1.52974e-10 2.22167 -0.733487 -0.20892 3.68996e-14 4.23378e-13 -3.77283e-14 -85.9146 24.5857 15.5328 16.1709 -8.53844 -30.4343 0.179514 11.6242 -1.65816 -1.19987e-09 1.20152e-09 1.93997e-09 -2.05526e-09 2.08688e-09 3.3691e-09 -1.19988e-09 1.20152e-09 1.93998e-09 -7.73091 5.47488 -0.417314 -1.19987e-09 1.20152e-09 1.93997e-09 -2.90554 0.965183 -0.102902 -1.19988e-09 1.20152e-09 1.93997e-09 -10.2786 0.731801 -0.0259123 -1.19987e-09 1.20152e-09 1.93997e-09 -2.22167 -0.733487 0.20892 -2.03217e-16 0.0 -3.88251e-19 11.9751 -19.5466 12.7684 0.0140094 28.8247 0.608819 -8.29349 -11.8549 -28.829 2.03217e-16 0.0 3.88251e-19 -3.87115 -21.0474 -11.348 0.208577 29.2862 -0.688549 5.73081 -16.447 14.4158
56.4665 83.5374 -57.5198 -0.6554 1.25 7.3601 3.70918 8.31487 1.4483 0.300913 -9.01013 0.553811 -5.53324 10.5082 -3.80754 7.37564 -27.7223 -5.32304 -0.0 0.0 0.0 -0.0 0.0 0.0 1.43179e-14 4.66854e-13 -3.10415e-14 88.8668 44.1283 -16.0512 -16.4446 -8.81958 30.9973 -1.11347 27.7916 4.26809 3.25707e-09 -2.07227e-09 5.00097e-10 5.64015e-09 -3.52796e-09 7.87414e-10 3.25708e-09 -2.07227e-09 5.00086e-10 7.73091 5.47488 0.417314 3.25707e-09 -2.07227e-09 5.00088e-10 2.90554 0.965183 0.102902 3.25707e-09 -2.07227e-09 5.00093e-10 10.2786 0.731801 0.0259123 3.25706e-09 -2.07227e-09 5.00103e-10 2.22167 -0.733487 -0.20892 1.419e-14 4.6685e-13 -3.14359e-14 -85.0714 23.9375 15.5781 16.0235 -8.43954 -30.0711 0.185259 11.8469 -1.69073 -1.28222e-09 1.38845e-09 2.20761e-09 -2.1955e-09 2.41071e-09 3.83294e-09 -1.28222e-09 1.38845e-09 2.20762e-09 -7.73091 5.47488 -0.417314 -1.28221e-09 1.38846e-09 2.20762e-09 -2.90554 0.965183 -0.102902 -1.28222e-09 1.38846e-09 2.20761e-09 -10.2786 0.731801 -0.0259123 -1.28222e-09 1.38846e-09 2.20761e-09 -2.22167 -0.733487 0.20892 -2.03217e-16 0.0 -3.88251e-19 12.031 -19.8761 12.5017 0.00853254 29.0334 0.616718 -8.24387 -11.9128 -28.5107 2.03217e-16 0.0 3.88251e-19 -3.6564 -21.3834 -11.0768 0.208266 29.5058 -0.688186 5.59854 -16.4558 14.0719
56.4231 83.4723 -57.5699 -0.7888 1.3089 7.5196 3.80194 8.25383 1.37646 0.249052 -8.7584 0.527993 -5.44243 10.0431 -3.65713 7.47119 -26.9679 -4.97883 -0.0 0.0 0.0 -0.0 0.0 0.0 -8.91676e-15 4.84429e-13 -2.21047e-14 85.0172 42.555 -15.3483 -16.0208 -8.60254 29.855 -0.979256 26.6366 4.04909 3.49517e-09 -2.39159e-09 8.29728e-10 6.05896e-09 -4.07963e-09 1.35209e-09 3.49518e-09 -2.39159e-09 8.29718e-10 7.73091 5.47488 0.417314 3.49517e-09 -2.39158e-09 8.29721e-10 2.90554 0.965183 0.102902 3.49518e-09 -2.39158e-09 8.29725e-10 10.2786 0.731801 0.0259123 3.49516e-09 -2.39158e-09 8.29738e-10 2.22167 -0.733487 -0.20892 -9.05132e-15 4.84427e-13 -2.2446e-14 -81.5153 22.6049 15.1498 15.523 -8.15524 -28.7968 0.175795 11.7401 -1.67419 -1.28206e-09 1.49526e-09 2.34721e-09 -2.19438e-09 2.59543e-09 4.07444e-09 -1.28206e-09 1.49526e-09 2.34722e-09 -7.73091 5.47488 -0.417314 -1.28205e-09 1.49526e-09 2.34721e-09 -2.90554 0.965183 -0.102902 -1.28206e-09 1.49526e-09 2.34721e-09 -10.2786 0.731801 -0.0259123 -1.28206e-09 1.49526e-09 2.3472e-09 -2.22167 -0.733487 0.20892 -2.03217e-16 0.0 -3.88251e-19 11.7278 -19.9713 11.8076 0.00684581 28.736 0.610868 -7.82194 -11.7643 -27.302 2.03217e-16 0.0 3.88251e-19 -3.16876 -21.2627 -10.4053 0.189148 28.8766 -0.660502 5.16435 -15.9215 13.2445
